<svg xmlns="http://www.w3.org/2000/svg" width="1500" height="900" viewBox="0 0 1500 900">
<style>text{font-family:Arial,sans-serif} .axis{stroke:#444;stroke-width:1.5} .grid{stroke:#ddd;stroke-width:1} .legend{font-size:15px} .label{font-size:18px} .title{font-size:26px;font-weight:bold}</style>
<rect width="1500" height="900" fill="white"/>
<text x="750.0" y="30" text-anchor="middle" class="title">ResearchAtlas Topic Growth by Year</text>
<line x1="90" y1="820.0" x2="1140" y2="820.0" class="grid"/>
<text x="78" y="825.0" text-anchor="end" class="label">0</text>
<line x1="90" y1="765.0" x2="1140" y2="765.0" class="grid"/>
<text x="78" y="770.0" text-anchor="end" class="label">1</text>
<line x1="90" y1="710.0" x2="1140" y2="710.0" class="grid"/>
<text x="78" y="715.0" text-anchor="end" class="label">2</text>
<line x1="90" y1="655.0" x2="1140" y2="655.0" class="grid"/>
<text x="78" y="660.0" text-anchor="end" class="label">3</text>
<line x1="90" y1="600.0" x2="1140" y2="600.0" class="grid"/>
<text x="78" y="605.0" text-anchor="end" class="label">4</text>
<line x1="90" y1="545.0" x2="1140" y2="545.0" class="grid"/>
<text x="78" y="550.0" text-anchor="end" class="label">5</text>
<line x1="90" y1="490.0" x2="1140" y2="490.0" class="grid"/>
<text x="78" y="495.0" text-anchor="end" class="label">6</text>
<line x1="90" y1="435.0" x2="1140" y2="435.0" class="grid"/>
<text x="78" y="440.0" text-anchor="end" class="label">7</text>
<line x1="90" y1="380.0" x2="1140" y2="380.0" class="grid"/>
<text x="78" y="385.0" text-anchor="end" class="label">8</text>
<line x1="90" y1="325.0" x2="1140" y2="325.0" class="grid"/>
<text x="78" y="330.0" text-anchor="end" class="label">9</text>
<line x1="90" y1="270.0" x2="1140" y2="270.0" class="grid"/>
<text x="78" y="275.0" text-anchor="end" class="label">10</text>
<line x1="90" y1="215.0" x2="1140" y2="215.0" class="grid"/>
<text x="78" y="220.0" text-anchor="end" class="label">11</text>
<line x1="90" y1="160.0" x2="1140" y2="160.0" class="grid"/>
<text x="78" y="165.0" text-anchor="end" class="label">12</text>
<line x1="90" y1="105.0" x2="1140" y2="105.0" class="grid"/>
<text x="78" y="110.0" text-anchor="end" class="label">13</text>
<line x1="90" y1="50.0" x2="1140" y2="50.0" class="grid"/>
<text x="78" y="55.0" text-anchor="end" class="label">14</text>
<line x1="90" y1="50" x2="90" y2="820" class="axis"/>
<line x1="90" y1="820" x2="1140" y2="820" class="axis"/>
<line x1="90.0" y1="820" x2="90.0" y2="826" class="axis"/>
<text x="90.0" y="848" text-anchor="middle" class="label">2022</text>
<line x1="440.0" y1="820" x2="440.0" y2="826" class="axis"/>
<text x="440.0" y="848" text-anchor="middle" class="label">2023</text>
<line x1="790.0" y1="820" x2="790.0" y2="826" class="axis"/>
<text x="790.0" y="848" text-anchor="middle" class="label">2024</text>
<line x1="1140.0" y1="820" x2="1140.0" y2="826" class="axis"/>
<text x="1140.0" y="848" text-anchor="middle" class="label">2025</text>
<text x="615.0" y="880" text-anchor="middle" class="label">Year</text>
<text x="25" y="435.0" transform="rotate(-90 25 435.0)" text-anchor="middle" class="label">Paper Count</text>
<polyline fill="none" stroke="#0b3c5d" stroke-width="2.5" points="90.0,600.0 440.0,600.0 790.0,655.0 1140.0,765.0"/>
<circle cx="90.0" cy="600.0" r="4" fill="#0b3c5d"/>
<circle cx="440.0" cy="600.0" r="4" fill="#0b3c5d"/>
<circle cx="790.0" cy="655.0" r="4" fill="#0b3c5d"/>
<circle cx="1140.0" cy="765.0" r="4" fill="#0b3c5d"/>
<polyline fill="none" stroke="#328cc1" stroke-width="2.5" points="90.0,765.0 440.0,710.0 790.0,545.0 1140.0,820.0"/>
<circle cx="90.0" cy="765.0" r="4" fill="#328cc1"/>
<circle cx="440.0" cy="710.0" r="4" fill="#328cc1"/>
<circle cx="790.0" cy="545.0" r="4" fill="#328cc1"/>
<circle cx="1140.0" cy="820.0" r="4" fill="#328cc1"/>
<polyline fill="none" stroke="#d9b310" stroke-width="2.5" points="90.0,820.0 440.0,765.0 790.0,545.0 1140.0,820.0"/>
<circle cx="90.0" cy="820.0" r="4" fill="#d9b310"/>
<circle cx="440.0" cy="765.0" r="4" fill="#d9b310"/>
<circle cx="790.0" cy="545.0" r="4" fill="#d9b310"/>
<circle cx="1140.0" cy="820.0" r="4" fill="#d9b310"/>
<polyline fill="none" stroke="#1d2731" stroke-width="2.5" points="90.0,765.0 440.0,655.0 790.0,655.0 1140.0,710.0"/>
<circle cx="90.0" cy="765.0" r="4" fill="#1d2731"/>
<circle cx="440.0" cy="655.0" r="4" fill="#1d2731"/>
<circle cx="790.0" cy="655.0" r="4" fill="#1d2731"/>
<circle cx="1140.0" cy="710.0" r="4" fill="#1d2731"/>
<polyline fill="none" stroke="#b56576" stroke-width="2.5" points="90.0,710.0 440.0,655.0 790.0,710.0 1140.0,765.0"/>
<circle cx="90.0" cy="710.0" r="4" fill="#b56576"/>
<circle cx="440.0" cy="655.0" r="4" fill="#b56576"/>
<circle cx="790.0" cy="710.0" r="4" fill="#b56576"/>
<circle cx="1140.0" cy="765.0" r="4" fill="#b56576"/>
<polyline fill="none" stroke="#6d597a" stroke-width="2.5" points="90.0,710.0 440.0,545.0 790.0,655.0 1140.0,765.0"/>
<circle cx="90.0" cy="710.0" r="4" fill="#6d597a"/>
<circle cx="440.0" cy="545.0" r="4" fill="#6d597a"/>
<circle cx="790.0" cy="655.0" r="4" fill="#6d597a"/>
<circle cx="1140.0" cy="765.0" r="4" fill="#6d597a"/>
<polyline fill="none" stroke="#355070" stroke-width="2.5" points="90.0,710.0 440.0,600.0 790.0,545.0 1140.0,765.0"/>
<circle cx="90.0" cy="710.0" r="4" fill="#355070"/>
<circle cx="440.0" cy="600.0" r="4" fill="#355070"/>
<circle cx="790.0" cy="545.0" r="4" fill="#355070"/>
<circle cx="1140.0" cy="765.0" r="4" fill="#355070"/>
<polyline fill="none" stroke="#588157" stroke-width="2.5" points="90.0,655.0 440.0,215.0 790.0,215.0 1140.0,380.0"/>
<circle cx="90.0" cy="655.0" r="4" fill="#588157"/>
<circle cx="440.0" cy="215.0" r="4" fill="#588157"/>
<circle cx="790.0" cy="215.0" r="4" fill="#588157"/>
<circle cx="1140.0" cy="380.0" r="4" fill="#588157"/>
<polyline fill="none" stroke="#bc4749" stroke-width="2.5" points="90.0,380.0 440.0,215.0 790.0,50.0 1140.0,600.0"/>
<circle cx="90.0" cy="380.0" r="4" fill="#bc4749"/>
<circle cx="440.0" cy="215.0" r="4" fill="#bc4749"/>
<circle cx="790.0" cy="50.0" r="4" fill="#bc4749"/>
<circle cx="1140.0" cy="600.0" r="4" fill="#bc4749"/>
<polyline fill="none" stroke="#6c757d" stroke-width="2.5" points="90.0,765.0 440.0,820.0 790.0,820.0 1140.0,820.0"/>
<circle cx="90.0" cy="765.0" r="4" fill="#6c757d"/>
<circle cx="440.0" cy="820.0" r="4" fill="#6c757d"/>
<circle cx="790.0" cy="820.0" r="4" fill="#6c757d"/>
<circle cx="1140.0" cy="820.0" r="4" fill="#6c757d"/>
<polyline fill="none" stroke="#ff7b00" stroke-width="2.5" points="90.0,765.0 440.0,765.0 790.0,710.0 1140.0,710.0"/>
<circle cx="90.0" cy="765.0" r="4" fill="#ff7b00"/>
<circle cx="440.0" cy="765.0" r="4" fill="#ff7b00"/>
<circle cx="790.0" cy="710.0" r="4" fill="#ff7b00"/>
<circle cx="1140.0" cy="710.0" r="4" fill="#ff7b00"/>
<polyline fill="none" stroke="#3a86ff" stroke-width="2.5" points="90.0,655.0 440.0,435.0 790.0,160.0 1140.0,600.0"/>
<circle cx="90.0" cy="655.0" r="4" fill="#3a86ff"/>
<circle cx="440.0" cy="435.0" r="4" fill="#3a86ff"/>
<circle cx="790.0" cy="160.0" r="4" fill="#3a86ff"/>
<circle cx="1140.0" cy="600.0" r="4" fill="#3a86ff"/>
<polyline fill="none" stroke="#8338ec" stroke-width="2.5" points="90.0,710.0 440.0,545.0 790.0,655.0 1140.0,765.0"/>
<circle cx="90.0" cy="710.0" r="4" fill="#8338ec"/>
<circle cx="440.0" cy="545.0" r="4" fill="#8338ec"/>
<circle cx="790.0" cy="655.0" r="4" fill="#8338ec"/>
<circle cx="1140.0" cy="765.0" r="4" fill="#8338ec"/>
<polyline fill="none" stroke="#2a9d8f" stroke-width="2.5" points="90.0,820.0 440.0,435.0 790.0,325.0 1140.0,820.0"/>
<circle cx="90.0" cy="820.0" r="4" fill="#2a9d8f"/>
<circle cx="440.0" cy="435.0" r="4" fill="#2a9d8f"/>
<circle cx="790.0" cy="325.0" r="4" fill="#2a9d8f"/>
<circle cx="1140.0" cy="820.0" r="4" fill="#2a9d8f"/>
<line x1="1165" y1="60" x2="1191" y2="60" stroke="#0b3c5d" stroke-width="3"/>
<circle cx="1178" cy="60" r="4" fill="#0b3c5d"/>
<text x="1201" y="65" class="legend">Distributed Deep Learning</text>
<line x1="1165" y1="86" x2="1191" y2="86" stroke="#328cc1" stroke-width="3"/>
<circle cx="1178" cy="86" r="4" fill="#328cc1"/>
<text x="1201" y="91" class="legend">Graph Neural Networks</text>
<line x1="1165" y1="112" x2="1191" y2="112" stroke="#d9b310" stroke-width="3"/>
<circle cx="1178" cy="112" r="4" fill="#d9b310"/>
<text x="1201" y="117" class="legend">Explainable AI</text>
<line x1="1165" y1="138" x2="1191" y2="138" stroke="#1d2731" stroke-width="3"/>
<circle cx="1178" cy="138" r="4" fill="#1d2731"/>
<text x="1201" y="143" class="legend">Sparse Matrix & Kernels</text>
<line x1="1165" y1="164" x2="1191" y2="164" stroke="#b56576" stroke-width="3"/>
<circle cx="1178" cy="164" r="4" fill="#b56576"/>
<text x="1201" y="169" class="legend">Compiler Optimization</text>
<line x1="1165" y1="190" x2="1191" y2="190" stroke="#6d597a" stroke-width="3"/>
<circle cx="1178" cy="190" r="4" fill="#6d597a"/>
<text x="1201" y="195" class="legend">Model Compression</text>
<line x1="1165" y1="216" x2="1191" y2="216" stroke="#355070" stroke-width="3"/>
<circle cx="1178" cy="216" r="4" fill="#355070"/>
<text x="1201" y="221" class="legend">Model Quantization</text>
<line x1="1165" y1="242" x2="1191" y2="242" stroke="#588157" stroke-width="3"/>
<circle cx="1178" cy="242" r="4" fill="#588157"/>
<text x="1201" y="247" class="legend">LLM Systems & Algorithms</text>
<line x1="1165" y1="268" x2="1191" y2="268" stroke="#bc4749" stroke-width="3"/>
<circle cx="1178" cy="268" r="4" fill="#bc4749"/>
<text x="1201" y="273" class="legend">AI Infrastructure</text>
<line x1="1165" y1="294" x2="1191" y2="294" stroke="#6c757d" stroke-width="3"/>
<circle cx="1178" cy="294" r="4" fill="#6c757d"/>
<text x="1201" y="299" class="legend">MLIR</text>
<line x1="1165" y1="320" x2="1191" y2="320" stroke="#ff7b00" stroke-width="3"/>
<circle cx="1178" cy="320" r="4" fill="#ff7b00"/>
<text x="1201" y="325" class="legend">CUDA Kernels</text>
<line x1="1165" y1="346" x2="1191" y2="346" stroke="#3a86ff" stroke-width="3"/>
<circle cx="1178" cy="346" r="4" fill="#3a86ff"/>
<text x="1201" y="351" class="legend">GPU Optimization</text>
<line x1="1165" y1="372" x2="1191" y2="372" stroke="#8338ec" stroke-width="3"/>
<circle cx="1178" cy="372" r="4" fill="#8338ec"/>
<text x="1201" y="377" class="legend">HPC</text>
<line x1="1165" y1="398" x2="1191" y2="398" stroke="#2a9d8f" stroke-width="3"/>
<circle cx="1178" cy="398" r="4" fill="#2a9d8f"/>
<text x="1201" y="403" class="legend">Hodgepodge</text>
</svg>
